<svg id="Capa_1" enable-background="new 0 0 512 512" height="512" viewBox="0 0 512 512" width="512" xmlns="http://www.w3.org/2000/svg"><g><path d="m512 256c0 141.38-114.62 256-256 256-38.43 0-74.88-8.47-107.59-23.65-21.79-10.1-41.91-80.225-59.85-95.755-12.68-10.97-24.27 33.875-34.59 20.645-33.82-43.39-53.97-97.96-53.97-157.24s20.15-113.85 53.97-157.24c10.32-13.24 21.91-25.44 34.59-36.4 17.77-15.39 37.67-28.36 59.2-38.41 32.88-15.37 69.56-23.95 108.24-23.95 141.38 0 256 114.62 256 256z" fill="#80b4fb"/><path d="m157.271 32.453h41.235v200.855h-41.235z" fill="#8b5e5e" transform="matrix(.707 .707 -.707 .707 146.063 -86.867)"/><path d="m445.93 83h-408.822c-11.259 0-20.386-9.127-20.386-20.386v-5.784c0-11.259 9.127-20.386 20.386-20.386h408.822c11.259 0 20.386 9.127 20.386 20.386v5.783c.001 11.259-9.127 20.387-20.386 20.387z" fill="#9d6b6b"/><path d="m466.311 56.83v5.78c0 11.26-9.12 20.39-20.38 20.39h-408.83c-11.25 0-20.38-9.13-20.38-20.39v-5.78c0-2.26.37-4.44 1.06-6.47 2.7 8.09 10.33 13.91 19.32 13.91h408.83c9 0 16.63-5.82 19.32-13.91.689 2.03 1.06 4.21 1.06 6.47z" fill="#8b5e5e"/><path d="m148.41 30.18v458.17c-37.18-17.23-69.52-43.14-94.44-75.11v-383.06c0-16.67 13.51-30.18 30.18-30.18h34.08c14.53 0 26.67 10.27 29.53 23.95.43 2.01.65 4.09.65 6.23z" fill="#9d6b6b"/><path d="m118.49.01c-16.56.13-29.93 13.58-29.93 30.17v419.47c-12.68-10.97-24.27-23.18-34.59-36.41v-383.06c0-16.67 13.51-30.18 30.18-30.18h34.08c.09 0 .17 0 .26.01z" fill="#8b5e5e"/><path d="m389.167 231.978h-31.715v-195.226c0-8.758 7.1-15.857 15.857-15.857 8.758 0 15.857 7.1 15.857 15.857v195.226z" fill="#f9f6f9"/><path d="m380.632 22.67c-5.08 2.64-8.55 7.96-8.55 14.08v195.23h-14.63v-195.23c0-8.76 7.1-15.86 15.86-15.86 2.64 0 5.13.64 7.32 1.78z" fill="#dddaec"/><path d="m439.2 297.76-62-62-45.42 45.42-16.59 16.58c-34.19 34.19-34.19 89.83 0 124.02 17.09 17.09 39.55 25.64 62.01 25.64 22.45 0 44.91-8.55 62-25.64 34.19-34.19 34.19-89.83 0-124.02zm-24.75 99.27c-20.54 20.54-53.97 20.54-74.51 0-20.55-20.55-20.55-53.97 0-74.52l37.26-37.26 37.25 37.26c20.55 20.55 20.55 53.97 0 74.52z" fill="#f9f6f9"/><g fill="#dddaec"><path d="m384.513 411.924c15.813 2.199 32.439-2.763 44.573-14.897 20.544-20.544 20.544-53.971 0-74.515l-45.108-44.041-6.782 6.783 37.259 37.258c20.544 20.544 20.544 53.971 0 74.515-8.412 8.411-18.982 13.372-29.942 14.897z"/><path d="m329.821 421.776c-34.19-34.19-34.19-89.823 0-124.013l54.69-54.69-7.316-7.316-62.006 62.006c-34.19 34.19-34.19 89.823 0 124.013 17.095 17.095 39.551 25.643 62.007 25.643 2.441 0 4.881-.12 7.316-.322-19.958-1.657-39.455-10.085-54.691-25.321z"/></g><g><path d="m402.469 234.638h-55.867c-10.285 0-18.622-8.337-18.622-18.622 0-10.285 8.337-18.622 18.622-18.622h55.867c10.285 0 18.622 8.337 18.622 18.622 0 10.285-8.337 18.622-18.622 18.622z" fill="#f9f6f9"/><path d="m376.53 234.636h-29.93c-10.28 0-18.62-8.34-18.62-18.62 0-5.15 2.08-9.8 5.46-13.17 3.36-3.37 8.02-5.45 13.16-5.45h29.93c-5.14 0-9.79 2.08-13.17 5.45-3.36 3.37-5.45 8.02-5.45 13.17 0 10.28 8.34 18.62 18.62 18.62z" fill="#dddaec"/></g><path d="m422.62 281.18c-.21.01-.43.01-.64.01h-89.57c-.21 0-.42 0-.63-.01l37.23-37.23h16.38z" fill="#dddaec"/><path d="m421.978 270.996h-89.564c-10.285 0-18.622-8.337-18.622-18.622 0-10.285 8.337-18.622 18.622-18.622h89.564c10.285 0 18.622 8.337 18.622 18.622 0 10.285-8.337 18.622-18.622 18.622z" fill="#f9f6f9"/><path d="m372.342 270.994h-39.931c-10.28 0-18.62-8.34-18.62-18.62 0-5.15 2.08-9.8 5.46-13.17 3.36-3.37 8.02-5.45 13.16-5.45h39.931c-5.14 0-9.79 2.08-13.17 5.45-3.36 3.37-5.45 8.02-5.45 13.17 0 10.28 8.34 18.62 18.62 18.62z" fill="#dddaec"/></g></svg>